<?xml version="1.0" standalone="no"?><!DOCTYPE svg PUBLIC "-//W3C//DTD SVG 1.1//EN" "http://www.w3.org/Graphics/SVG/1.1/DTD/svg11.dtd"><svg t="1543392281106" class="icon" style="" viewBox="0 0 1024 1024" version="1.1" xmlns="http://www.w3.org/2000/svg" p-id="5792" xmlns:xlink="http://www.w3.org/1999/xlink" width="200" height="200"><defs><style type="text/css"></style></defs><path d="M1024 513.828571c0 98.742857-210.285714 312.685714-512 312.685715-292.571429 0-512-208.457143-512-312.685715C0 409.6 219.428571 201.142857 512 201.142857c303.542857 0 512 208.457143 512 312.685714z m-512-256c-135.314286 0-246.857143 113.371429-246.857143 254.171429s109.714286 254.171429 246.857143 254.171429c135.314286 0 246.857143-113.371429 246.857143-254.171429s-109.714286-254.171429-246.857143-254.171429z" p-id="5793"></path><path d="M512 351.085714c-85.942857 0-157.257143 73.142857-157.257143 162.742857S424.228571 676.571429 512 676.571429s157.257143-73.142857 157.257143-162.742858-71.314286-162.742857-157.257143-162.742857z" p-id="5794"></path></svg>